<?xml version="1.0" standalone="no"?>
<!DOCTYPE svg PUBLIC "-//W3C//DTD SVG 1.0//EN" "http://www.w3.org/TR/2001/REC-SVG-20010904/DTD/svg10.dtd">
<svg xmlns="http://www.w3.org/2000/svg" xmlns:xlink="http://www.w3.org/1999/xlink" id="body_1" width="288" height="288">

<defs>
    <clipPath  id="1">

    <path id=""  clip-rule="evenodd" transform="matrix(1 0 0 1 0 0)"  d="M0 216L0 0L0 0L216 0L216 0L216 216L216 216L0 216z" />    </clipPath>
</defs>

<g transform="matrix(1.3333 0 0 1.3333 0 0)">
	<g clip-path="url(#1)" >
    <path id=""  transform="matrix(1 0 0 -1 0 216)"  d="M195.75 175.5L195.75 175.5L195.75 175.5L145.9414 175.5L145.9414 175.5L145.9414 175.5C 136.92578 175.5 132.40234 164.59766 138.78125 158.21875L138.78125 158.21875L152.45312 144.54688L152.45312 144.54688L121.5 113.58984L121.5 113.58984L90.546875 144.54297L90.546875 144.54297L90.546875 144.54297C 85.27344 149.8164 76.72656 149.8164 71.45703 144.54297L71.45703 144.54297L42.476562 115.56641C 39.839844 112.92578 39.839844 108.65234 42.476562 106.015625L42.476562 106.015625L52.023438 96.47266C 54.660156 93.83984 58.929688 93.83984 61.566406 96.47266L61.566406 96.47266L81 115.91016L81 115.91016L111.953125 84.95703L111.953125 84.95703L111.953125 84.95703C 117.22656 79.68359 125.77344 79.68359 131.04297 84.95703L131.04297 84.95703L171.54297 125.45703L171.54297 125.45703L185.21094 111.78906L185.21094 111.78906L185.21094 111.78906C 191.58984 105.41016 202.4961 109.92578 202.4961 118.94922L202.4961 118.94922L202.4961 168.75C 202.5 172.48047 199.48047 175.5 195.75 175.5zM209.25 54L209.25 54L209.25 54L27 54L27 54L27 182.25L27 182.25L27 182.25C 27 185.98047 23.980469 189 20.25 189L20.25 189L6.75 189C 3.019531 189 0 185.98047 0 182.25L0 182.25L0 40.5C 0 33.04297 6.0429697 27 13.5 27L13.5 27L209.25 27C 212.98047 27 216 30.019531 216 33.75L216 33.75L216 47.25C 216 50.98047 212.98047 54 209.25 54z" stroke="none" fill="#000000" fill-rule="nonzero" />
	</g>
</g>
</svg>